<?xml version="1.0" encoding="UTF-8" standalone="no"?>
<!DOCTYPE svg PUBLIC "-//W3C//DTD SVG 1.1//EN"
 "http://www.w3.org/Graphics/SVG/1.1/DTD/svg11.dtd">
<!-- Generated by graphviz version 8.1.0 (20230707.0739)
 -->
<!-- Title: model Pages: 1 -->
<svg width="186pt" height="352pt"
 viewBox="0.00 0.00 186.00 352.00" xmlns="http://www.w3.org/2000/svg" xmlns:xlink="http://www.w3.org/1999/xlink">
<g id="graph0" class="graph" transform="scale(1 1) rotate(0) translate(4 348)">
<title>model</title>
<polygon fill="white" stroke="none" points="-4,4 -4,-348 182,-348 182,4 -4,4"/>
<!-- 0 -->
<g id="node1" class="node">
<title>0</title>
<polygon fill="lightyellow" stroke="none" points="158.62,-344 19.38,-344 19.38,-310 158.62,-310 158.62,-344"/>
<polygon fill="none" stroke="black" points="19.38,-310 19.38,-344 81.12,-344 81.12,-310 19.38,-310"/>
<text text-anchor="start" x="24.38" y="-329.5" font-family="Linux libertine" font-size="10.00">input&#45;tensor</text>
<text text-anchor="start" x="33.75" y="-317.5" font-family="Linux libertine" font-size="10.00">depth:0</text>
<polygon fill="none" stroke="black" points="81.12,-310 81.12,-344 158.62,-344 158.62,-310 81.12,-310"/>
<text text-anchor="start" x="86.12" y="-323.5" font-family="Linux libertine" font-size="10.00">(1, 1, 224, 224)</text>
</g>
<!-- 1 -->
<g id="node2" class="node">
<title>1</title>
<polygon fill="#c1ffc1" stroke="none" points="178,-274 0,-274 0,-230 178,-230 178,-274"/>
<polygon fill="none" stroke="black" points="0,-230 0,-274 55,-274 55,-230 0,-230"/>
<text text-anchor="start" x="5" y="-254.5" font-family="Linux libertine" font-size="10.00">Sequential</text>
<text text-anchor="start" x="11" y="-242.5" font-family="Linux libertine" font-size="10.00">depth:1</text>
<polygon fill="none" stroke="black" points="55,-252 55,-274 98,-274 98,-252 55,-252"/>
<text text-anchor="start" x="64.12" y="-259.5" font-family="Linux libertine" font-size="10.00">input:</text>
<polygon fill="none" stroke="black" points="98,-252 98,-274 178,-274 178,-252 98,-252"/>
<text text-anchor="start" x="102.75" y="-259.5" font-family="Linux libertine" font-size="10.00">(1, 1, 224, 224) </text>
<polygon fill="none" stroke="black" points="55,-230 55,-252 98,-252 98,-230 55,-230"/>
<text text-anchor="start" x="59.62" y="-237.5" font-family="Linux libertine" font-size="10.00">output: </text>
<polygon fill="none" stroke="black" points="98,-230 98,-252 178,-252 178,-230 98,-230"/>
<text text-anchor="start" x="102.75" y="-237.5" font-family="Linux libertine" font-size="10.00">(1, 256, 14, 14) </text>
</g>
<!-- 0&#45;&gt;1 -->
<g id="edge1" class="edge">
<title>0&#45;&gt;1</title>
<path fill="none" stroke="black" d="M89,-310.16C89,-302.67 89,-293.45 89,-284.62"/>
<polygon fill="black" stroke="black" points="92.5,-284.8 89,-274.8 85.5,-284.8 92.5,-284.8"/>
</g>
<!-- 2 -->
<g id="node3" class="node">
<title>2</title>
<polygon fill="aliceblue" stroke="none" points="172,-194 6,-194 6,-150 172,-150 172,-194"/>
<polygon fill="none" stroke="black" points="6,-150 6,-194 49,-194 49,-150 6,-150"/>
<text text-anchor="start" x="17.75" y="-174.5" font-family="Linux libertine" font-size="10.00">view</text>
<text text-anchor="start" x="11" y="-162.5" font-family="Linux libertine" font-size="10.00">depth:1</text>
<polygon fill="none" stroke="black" points="49,-172 49,-194 92,-194 92,-172 49,-172"/>
<text text-anchor="start" x="58.12" y="-179.5" font-family="Linux libertine" font-size="10.00">input:</text>
<polygon fill="none" stroke="black" points="92,-172 92,-194 172,-194 172,-172 92,-172"/>
<text text-anchor="start" x="96.75" y="-179.5" font-family="Linux libertine" font-size="10.00">(1, 256, 14, 14) </text>
<polygon fill="none" stroke="black" points="49,-150 49,-172 92,-172 92,-150 49,-150"/>
<text text-anchor="start" x="53.62" y="-157.5" font-family="Linux libertine" font-size="10.00">output: </text>
<polygon fill="none" stroke="black" points="92,-150 92,-172 172,-172 172,-150 92,-150"/>
<text text-anchor="start" x="108" y="-157.5" font-family="Linux libertine" font-size="10.00">(1, 50176) </text>
</g>
<!-- 1&#45;&gt;2 -->
<g id="edge2" class="edge">
<title>1&#45;&gt;2</title>
<path fill="none" stroke="black" d="M89,-230.1C89,-222.32 89,-213.3 89,-204.76"/>
<polygon fill="black" stroke="black" points="92.5,-204.96 89,-194.96 85.5,-204.96 92.5,-204.96"/>
</g>
<!-- 3 -->
<g id="node4" class="node">
<title>3</title>
<polygon fill="#c1ffc1" stroke="none" points="167,-114 11,-114 11,-70 167,-70 167,-114"/>
<polygon fill="none" stroke="black" points="11,-70 11,-114 66,-114 66,-70 11,-70"/>
<text text-anchor="start" x="16" y="-94.5" font-family="Linux libertine" font-size="10.00">Sequential</text>
<text text-anchor="start" x="22" y="-82.5" font-family="Linux libertine" font-size="10.00">depth:1</text>
<polygon fill="none" stroke="black" points="66,-92 66,-114 109,-114 109,-92 66,-92"/>
<text text-anchor="start" x="75.12" y="-99.5" font-family="Linux libertine" font-size="10.00">input:</text>
<polygon fill="none" stroke="black" points="109,-92 109,-114 167,-114 167,-92 109,-92"/>
<text text-anchor="start" x="114" y="-99.5" font-family="Linux libertine" font-size="10.00">(1, 50176) </text>
<polygon fill="none" stroke="black" points="66,-70 66,-92 109,-92 109,-70 66,-70"/>
<text text-anchor="start" x="70.62" y="-77.5" font-family="Linux libertine" font-size="10.00">output: </text>
<polygon fill="none" stroke="black" points="109,-70 109,-92 167,-92 167,-70 109,-70"/>
<text text-anchor="start" x="124.5" y="-77.5" font-family="Linux libertine" font-size="10.00">(1, 1) </text>
</g>
<!-- 2&#45;&gt;3 -->
<g id="edge3" class="edge">
<title>2&#45;&gt;3</title>
<path fill="none" stroke="black" d="M89,-150.1C89,-142.32 89,-133.3 89,-124.76"/>
<polygon fill="black" stroke="black" points="92.5,-124.96 89,-114.96 85.5,-124.96 92.5,-124.96"/>
</g>
<!-- 4 -->
<g id="node5" class="node">
<title>4</title>
<polygon fill="lightyellow" stroke="none" points="139.88,-34 38.13,-34 38.13,0 139.88,0 139.88,-34"/>
<polygon fill="none" stroke="black" points="38.12,0 38.12,-34 105.88,-34 105.88,0 38.12,0"/>
<text text-anchor="start" x="43.12" y="-19.5" font-family="Linux libertine" font-size="10.00">output&#45;tensor</text>
<text text-anchor="start" x="55.5" y="-7.5" font-family="Linux libertine" font-size="10.00">depth:0</text>
<polygon fill="none" stroke="black" points="105.88,0 105.88,-34 139.88,-34 139.88,0 105.88,0"/>
<text text-anchor="start" x="110.88" y="-13.5" font-family="Linux libertine" font-size="10.00">(1, 1)</text>
</g>
<!-- 3&#45;&gt;4 -->
<g id="edge4" class="edge">
<title>3&#45;&gt;4</title>
<path fill="none" stroke="black" d="M89,-70.28C89,-62.28 89,-53.03 89,-44.55"/>
<polygon fill="black" stroke="black" points="92.5,-44.67 89,-34.67 85.5,-44.67 92.5,-44.67"/>
</g>
</g>
</svg>
