<?xml version="1.0" encoding="UTF-8" standalone="no"?>
<!DOCTYPE svg PUBLIC "-//W3C//DTD SVG 1.1//EN"
 "http://www.w3.org/Graphics/SVG/1.1/DTD/svg11.dtd">
<!-- Generated by graphviz version 8.1.0 (20230707.0739)
 -->
<!-- Title: model Pages: 1 -->
<svg width="539pt" height="864pt"
 viewBox="0.00 0.00 539.05 864.00" xmlns="http://www.w3.org/2000/svg" xmlns:xlink="http://www.w3.org/1999/xlink">
<g id="graph0" class="graph" transform="scale(0.947368 0.947368) rotate(0) translate(4 908)">
<title>model</title>
<polygon fill="white" stroke="none" points="-4,4 -4,-908 565,-908 565,4 -4,4"/>
<!-- 0 -->
<g id="node1" class="node">
<title>0</title>
<polygon fill="lightyellow" stroke="none" points="197.12,-904 57.88,-904 57.88,-870 197.12,-870 197.12,-904"/>
<polygon fill="none" stroke="black" points="57.88,-870 57.88,-904 119.62,-904 119.62,-870 57.88,-870"/>
<text text-anchor="start" x="62.88" y="-889.5" font-family="Linux libertine" font-size="10.00">input&#45;tensor</text>
<text text-anchor="start" x="72.25" y="-877.5" font-family="Linux libertine" font-size="10.00">depth:0</text>
<polygon fill="none" stroke="black" points="119.62,-870 119.62,-904 197.12,-904 197.12,-870 119.62,-870"/>
<text text-anchor="start" x="124.62" y="-883.5" font-family="Linux libertine" font-size="10.00">(1, 1, 256, 256)</text>
</g>
<!-- 1 -->
<g id="node2" class="node">
<title>1</title>
<polygon fill="#c1ffc1" stroke="none" points="234,-834 21,-834 21,-790 234,-790 234,-834"/>
<polygon fill="none" stroke="black" points="21,-790 21,-834 106,-834 106,-790 21,-790"/>
<text text-anchor="start" x="25.62" y="-814.5" font-family="Linux libertine" font-size="10.00">UNet_down_block</text>
<text text-anchor="start" x="47" y="-802.5" font-family="Linux libertine" font-size="10.00">depth:1</text>
<polygon fill="none" stroke="black" points="106,-812 106,-834 149,-834 149,-812 106,-812"/>
<text text-anchor="start" x="115.12" y="-819.5" font-family="Linux libertine" font-size="10.00">input:</text>
<polygon fill="none" stroke="black" points="149,-812 149,-834 234,-834 234,-812 149,-812"/>
<text text-anchor="start" x="156.25" y="-819.5" font-family="Linux libertine" font-size="10.00">(1, 1, 256, 256) </text>
<polygon fill="none" stroke="black" points="106,-790 106,-812 149,-812 149,-790 106,-790"/>
<text text-anchor="start" x="110.62" y="-797.5" font-family="Linux libertine" font-size="10.00">output: </text>
<polygon fill="none" stroke="black" points="149,-790 149,-812 234,-812 234,-790 149,-790"/>
<text text-anchor="start" x="153.62" y="-797.5" font-family="Linux libertine" font-size="10.00">(1, 64, 256, 256) </text>
</g>
<!-- 0&#45;&gt;1 -->
<g id="edge1" class="edge">
<title>0&#45;&gt;1</title>
<path fill="none" stroke="black" d="M127.5,-870.16C127.5,-862.67 127.5,-853.45 127.5,-844.62"/>
<polygon fill="black" stroke="black" points="131,-844.8 127.5,-834.8 124,-844.8 131,-844.8"/>
</g>
<!-- 2 -->
<g id="node3" class="node">
<title>2</title>
<polygon fill="#c1ffc1" stroke="none" points="306,-754 87,-754 87,-710 306,-710 306,-754"/>
<polygon fill="none" stroke="black" points="87,-710 87,-754 172,-754 172,-710 87,-710"/>
<text text-anchor="start" x="91.62" y="-734.5" font-family="Linux libertine" font-size="10.00">UNet_down_block</text>
<text text-anchor="start" x="113" y="-722.5" font-family="Linux libertine" font-size="10.00">depth:1</text>
<polygon fill="none" stroke="black" points="172,-732 172,-754 215,-754 215,-732 172,-732"/>
<text text-anchor="start" x="181.12" y="-739.5" font-family="Linux libertine" font-size="10.00">input:</text>
<polygon fill="none" stroke="black" points="215,-732 215,-754 306,-754 306,-732 215,-732"/>
<text text-anchor="start" x="222.62" y="-739.5" font-family="Linux libertine" font-size="10.00">(1, 64, 256, 256) </text>
<polygon fill="none" stroke="black" points="172,-710 172,-732 215,-732 215,-710 172,-710"/>
<text text-anchor="start" x="176.62" y="-717.5" font-family="Linux libertine" font-size="10.00">output: </text>
<polygon fill="none" stroke="black" points="215,-710 215,-732 306,-732 306,-710 215,-710"/>
<text text-anchor="start" x="220" y="-717.5" font-family="Linux libertine" font-size="10.00">(1, 128, 128, 128) </text>
</g>
<!-- 1&#45;&gt;2 -->
<g id="edge2" class="edge">
<title>1&#45;&gt;2</title>
<path fill="none" stroke="black" d="M145.99,-790.1C153.57,-781.53 162.47,-771.46 170.68,-762.19"/>
<polygon fill="black" stroke="black" points="172.95,-764.77 176.96,-754.96 167.71,-760.13 172.95,-764.77"/>
</g>
<!-- 9 -->
<g id="node10" class="node">
<title>9</title>
<polygon fill="#c1ffc1" stroke="none" points="285,-194 0,-194 0,-150 285,-150 285,-194"/>
<polygon fill="none" stroke="black" points="0,-150 0,-194 73,-194 73,-150 0,-150"/>
<text text-anchor="start" x="5" y="-174.5" font-family="Linux libertine" font-size="10.00">UNet_up_block</text>
<text text-anchor="start" x="20" y="-162.5" font-family="Linux libertine" font-size="10.00">depth:1</text>
<polygon fill="none" stroke="black" points="73,-172 73,-194 116,-194 116,-172 73,-172"/>
<text text-anchor="start" x="82.12" y="-179.5" font-family="Linux libertine" font-size="10.00">input:</text>
<polygon fill="none" stroke="black" points="116,-172 116,-194 285,-194 285,-172 116,-172"/>
<text text-anchor="start" x="120.62" y="-179.5" font-family="Linux libertine" font-size="10.00">(1, 64, 256, 256), (1, 128, 128, 128) </text>
<polygon fill="none" stroke="black" points="73,-150 73,-172 116,-172 116,-150 73,-150"/>
<text text-anchor="start" x="77.62" y="-157.5" font-family="Linux libertine" font-size="10.00">output: </text>
<polygon fill="none" stroke="black" points="116,-150 116,-172 285,-172 285,-150 116,-150"/>
<text text-anchor="start" x="162.62" y="-157.5" font-family="Linux libertine" font-size="10.00">(1, 64, 256, 256) </text>
</g>
<!-- 1&#45;&gt;9 -->
<g id="edge3" class="edge">
<title>1&#45;&gt;9</title>
<path fill="none" stroke="black" d="M104.22,-790.03C94.52,-780.05 84.01,-767.37 77.5,-754 57.51,-712.93 58.5,-698.68 58.5,-653 58.5,-653 58.5,-653 58.5,-331 58.5,-285.32 54.87,-269.67 77.5,-230 83.77,-219.01 92.96,-209.08 102.47,-200.7"/>
<polygon fill="black" stroke="black" points="104.38,-202.82 109.84,-193.74 99.91,-197.44 104.38,-202.82"/>
</g>
<!-- 3 -->
<g id="node4" class="node">
<title>3</title>
<polygon fill="#c1ffc1" stroke="none" points="394,-674 175,-674 175,-630 394,-630 394,-674"/>
<polygon fill="none" stroke="black" points="175,-630 175,-674 260,-674 260,-630 175,-630"/>
<text text-anchor="start" x="179.62" y="-654.5" font-family="Linux libertine" font-size="10.00">UNet_down_block</text>
<text text-anchor="start" x="201" y="-642.5" font-family="Linux libertine" font-size="10.00">depth:1</text>
<polygon fill="none" stroke="black" points="260,-652 260,-674 303,-674 303,-652 260,-652"/>
<text text-anchor="start" x="269.12" y="-659.5" font-family="Linux libertine" font-size="10.00">input:</text>
<polygon fill="none" stroke="black" points="303,-652 303,-674 394,-674 394,-652 303,-652"/>
<text text-anchor="start" x="308" y="-659.5" font-family="Linux libertine" font-size="10.00">(1, 128, 128, 128) </text>
<polygon fill="none" stroke="black" points="260,-630 260,-652 303,-652 303,-630 260,-630"/>
<text text-anchor="start" x="264.62" y="-637.5" font-family="Linux libertine" font-size="10.00">output: </text>
<polygon fill="none" stroke="black" points="303,-630 303,-652 394,-652 394,-630 303,-630"/>
<text text-anchor="start" x="313.25" y="-637.5" font-family="Linux libertine" font-size="10.00">(1, 256, 64, 64) </text>
</g>
<!-- 2&#45;&gt;3 -->
<g id="edge4" class="edge">
<title>2&#45;&gt;3</title>
<path fill="none" stroke="black" d="M220.08,-710.1C230.14,-701.18 242.04,-690.64 252.85,-681.06"/>
<polygon fill="black" stroke="black" points="254.69,-684.21 259.85,-674.96 250.05,-678.97 254.69,-684.21"/>
</g>
<!-- 8 -->
<g id="node9" class="node">
<title>8</title>
<polygon fill="#c1ffc1" stroke="none" points="366.5,-274 86.5,-274 86.5,-230 366.5,-230 366.5,-274"/>
<polygon fill="none" stroke="black" points="86.5,-230 86.5,-274 159.5,-274 159.5,-230 86.5,-230"/>
<text text-anchor="start" x="91.5" y="-254.5" font-family="Linux libertine" font-size="10.00">UNet_up_block</text>
<text text-anchor="start" x="106.5" y="-242.5" font-family="Linux libertine" font-size="10.00">depth:1</text>
<polygon fill="none" stroke="black" points="159.5,-252 159.5,-274 202.5,-274 202.5,-252 159.5,-252"/>
<text text-anchor="start" x="168.62" y="-259.5" font-family="Linux libertine" font-size="10.00">input:</text>
<polygon fill="none" stroke="black" points="202.5,-252 202.5,-274 366.5,-274 366.5,-252 202.5,-252"/>
<text text-anchor="start" x="207.25" y="-259.5" font-family="Linux libertine" font-size="10.00">(1, 128, 128, 128), (1, 256, 64, 64) </text>
<polygon fill="none" stroke="black" points="159.5,-230 159.5,-252 202.5,-252 202.5,-230 159.5,-230"/>
<text text-anchor="start" x="164.12" y="-237.5" font-family="Linux libertine" font-size="10.00">output: </text>
<polygon fill="none" stroke="black" points="202.5,-230 202.5,-252 366.5,-252 366.5,-230 202.5,-230"/>
<text text-anchor="start" x="244" y="-237.5" font-family="Linux libertine" font-size="10.00">(1, 128, 128, 128) </text>
</g>
<!-- 2&#45;&gt;8 -->
<g id="edge5" class="edge">
<title>2&#45;&gt;8</title>
<path fill="none" stroke="black" d="M183.07,-710.08C176.89,-699.61 169.96,-686.52 165.5,-674 150.18,-630.97 146.5,-618.68 146.5,-573 146.5,-573 146.5,-573 146.5,-411 146.5,-365.32 143.5,-350.03 165.5,-310 171.38,-299.3 179.99,-289.48 188.9,-281.1"/>
<polygon fill="black" stroke="black" points="190.94,-284.09 196.1,-274.84 186.3,-278.85 190.94,-284.09"/>
</g>
<!-- 4 -->
<g id="node5" class="node">
<title>4</title>
<polygon fill="#c1ffc1" stroke="none" points="470.5,-594 262.5,-594 262.5,-550 470.5,-550 470.5,-594"/>
<polygon fill="none" stroke="black" points="262.5,-550 262.5,-594 347.5,-594 347.5,-550 262.5,-550"/>
<text text-anchor="start" x="267.12" y="-574.5" font-family="Linux libertine" font-size="10.00">UNet_down_block</text>
<text text-anchor="start" x="288.5" y="-562.5" font-family="Linux libertine" font-size="10.00">depth:1</text>
<polygon fill="none" stroke="black" points="347.5,-572 347.5,-594 390.5,-594 390.5,-572 347.5,-572"/>
<text text-anchor="start" x="356.62" y="-579.5" font-family="Linux libertine" font-size="10.00">input:</text>
<polygon fill="none" stroke="black" points="390.5,-572 390.5,-594 470.5,-594 470.5,-572 390.5,-572"/>
<text text-anchor="start" x="395.25" y="-579.5" font-family="Linux libertine" font-size="10.00">(1, 256, 64, 64) </text>
<polygon fill="none" stroke="black" points="347.5,-550 347.5,-572 390.5,-572 390.5,-550 347.5,-550"/>
<text text-anchor="start" x="352.12" y="-557.5" font-family="Linux libertine" font-size="10.00">output: </text>
<polygon fill="none" stroke="black" points="390.5,-550 390.5,-572 470.5,-572 470.5,-550 390.5,-550"/>
<text text-anchor="start" x="395.25" y="-557.5" font-family="Linux libertine" font-size="10.00">(1, 512, 32, 32) </text>
</g>
<!-- 3&#45;&gt;4 -->
<g id="edge6" class="edge">
<title>3&#45;&gt;4</title>
<path fill="none" stroke="black" d="M306.47,-630.1C315.76,-621.27 326.71,-610.85 336.71,-601.34"/>
<polygon fill="black" stroke="black" points="338.63,-604.39 343.46,-594.96 333.81,-599.32 338.63,-604.39"/>
</g>
<!-- 7 -->
<g id="node8" class="node">
<title>7</title>
<polygon fill="#c1ffc1" stroke="none" points="444.5,-354 174.5,-354 174.5,-310 444.5,-310 444.5,-354"/>
<polygon fill="none" stroke="black" points="174.5,-310 174.5,-354 247.5,-354 247.5,-310 174.5,-310"/>
<text text-anchor="start" x="179.5" y="-334.5" font-family="Linux libertine" font-size="10.00">UNet_up_block</text>
<text text-anchor="start" x="194.5" y="-322.5" font-family="Linux libertine" font-size="10.00">depth:1</text>
<polygon fill="none" stroke="black" points="247.5,-332 247.5,-354 290.5,-354 290.5,-332 247.5,-332"/>
<text text-anchor="start" x="256.62" y="-339.5" font-family="Linux libertine" font-size="10.00">input:</text>
<polygon fill="none" stroke="black" points="290.5,-332 290.5,-354 444.5,-354 444.5,-332 290.5,-332"/>
<text text-anchor="start" x="295.5" y="-339.5" font-family="Linux libertine" font-size="10.00">(1, 256, 64, 64), (1, 512, 32, 32) </text>
<polygon fill="none" stroke="black" points="247.5,-310 247.5,-332 290.5,-332 290.5,-310 247.5,-310"/>
<text text-anchor="start" x="252.12" y="-317.5" font-family="Linux libertine" font-size="10.00">output: </text>
<polygon fill="none" stroke="black" points="290.5,-310 290.5,-332 444.5,-332 444.5,-310 290.5,-310"/>
<text text-anchor="start" x="332.25" y="-317.5" font-family="Linux libertine" font-size="10.00">(1, 256, 64, 64) </text>
</g>
<!-- 3&#45;&gt;7 -->
<g id="edge7" class="edge">
<title>3&#45;&gt;7</title>
<path fill="none" stroke="black" d="M269.88,-630.13C263.5,-619.78 256.75,-606.77 253.5,-594 231.15,-506.13 219.17,-473.92 253.5,-390 257.84,-379.39 265.21,-369.7 273.2,-361.43"/>
<polygon fill="black" stroke="black" points="275.19,-364.41 279.97,-354.95 270.34,-359.36 275.19,-364.41"/>
</g>
<!-- 5 -->
<g id="node6" class="node">
<title>5</title>
<polygon fill="#c1ffc1" stroke="none" points="561,-514 348,-514 348,-470 561,-470 561,-514"/>
<polygon fill="none" stroke="black" points="348,-470 348,-514 433,-514 433,-470 348,-470"/>
<text text-anchor="start" x="352.62" y="-494.5" font-family="Linux libertine" font-size="10.00">UNet_down_block</text>
<text text-anchor="start" x="374" y="-482.5" font-family="Linux libertine" font-size="10.00">depth:1</text>
<polygon fill="none" stroke="black" points="433,-492 433,-514 476,-514 476,-492 433,-492"/>
<text text-anchor="start" x="442.12" y="-499.5" font-family="Linux libertine" font-size="10.00">input:</text>
<polygon fill="none" stroke="black" points="476,-492 476,-514 561,-514 561,-492 476,-492"/>
<text text-anchor="start" x="483.25" y="-499.5" font-family="Linux libertine" font-size="10.00">(1, 512, 32, 32) </text>
<polygon fill="none" stroke="black" points="433,-470 433,-492 476,-492 476,-470 433,-470"/>
<text text-anchor="start" x="437.62" y="-477.5" font-family="Linux libertine" font-size="10.00">output: </text>
<polygon fill="none" stroke="black" points="476,-470 476,-492 561,-492 561,-470 476,-470"/>
<text text-anchor="start" x="480.62" y="-477.5" font-family="Linux libertine" font-size="10.00">(1, 1024, 16, 16) </text>
</g>
<!-- 4&#45;&gt;5 -->
<g id="edge8" class="edge">
<title>4&#45;&gt;5</title>
<path fill="none" stroke="black" d="M390.08,-550.1C400.14,-541.18 412.04,-530.64 422.85,-521.06"/>
<polygon fill="black" stroke="black" points="424.69,-524.21 429.85,-514.96 420.05,-518.97 424.69,-524.21"/>
</g>
<!-- 6 -->
<g id="node7" class="node">
<title>6</title>
<polygon fill="#c1ffc1" stroke="none" points="538,-434 263,-434 263,-390 538,-390 538,-434"/>
<polygon fill="none" stroke="black" points="263,-390 263,-434 336,-434 336,-390 263,-390"/>
<text text-anchor="start" x="268" y="-414.5" font-family="Linux libertine" font-size="10.00">UNet_up_block</text>
<text text-anchor="start" x="283" y="-402.5" font-family="Linux libertine" font-size="10.00">depth:1</text>
<polygon fill="none" stroke="black" points="336,-412 336,-434 379,-434 379,-412 336,-412"/>
<text text-anchor="start" x="345.12" y="-419.5" font-family="Linux libertine" font-size="10.00">input:</text>
<polygon fill="none" stroke="black" points="379,-412 379,-434 538,-434 538,-412 379,-412"/>
<text text-anchor="start" x="383.88" y="-419.5" font-family="Linux libertine" font-size="10.00">(1, 512, 32, 32), (1, 1024, 16, 16) </text>
<polygon fill="none" stroke="black" points="336,-390 336,-412 379,-412 379,-390 336,-390"/>
<text text-anchor="start" x="340.62" y="-397.5" font-family="Linux libertine" font-size="10.00">output: </text>
<polygon fill="none" stroke="black" points="379,-390 379,-412 538,-412 538,-390 379,-390"/>
<text text-anchor="start" x="423.25" y="-397.5" font-family="Linux libertine" font-size="10.00">(1, 512, 32, 32) </text>
</g>
<!-- 4&#45;&gt;6 -->
<g id="edge9" class="edge">
<title>4&#45;&gt;6</title>
<path fill="none" stroke="black" d="M353.08,-550.28C341.37,-529.43 327.93,-496.64 339.5,-470 344.23,-459.11 352.18,-449.35 360.8,-441.12"/>
<polygon fill="black" stroke="black" points="362.68,-444.25 367.84,-434.99 358.03,-439.01 362.68,-444.25"/>
</g>
<!-- 5&#45;&gt;6 -->
<g id="edge10" class="edge">
<title>5&#45;&gt;6</title>
<path fill="none" stroke="black" d="M440.03,-470.1C434.22,-461.7 427.41,-451.87 421.1,-442.76"/>
<polygon fill="black" stroke="black" points="423.58,-441.19 415.01,-434.96 417.83,-445.17 423.58,-441.19"/>
</g>
<!-- 6&#45;&gt;7 -->
<g id="edge11" class="edge">
<title>6&#45;&gt;7</title>
<path fill="none" stroke="black" d="M376.11,-390.1C365.71,-381.18 353.41,-370.64 342.23,-361.06"/>
<polygon fill="black" stroke="black" points="344.82,-357.81 334.95,-353.96 340.27,-363.13 344.82,-357.81"/>
</g>
<!-- 7&#45;&gt;8 -->
<g id="edge12" class="edge">
<title>7&#45;&gt;8</title>
<path fill="none" stroke="black" d="M287.26,-310.1C277.86,-301.27 266.77,-290.85 256.66,-281.34"/>
<polygon fill="black" stroke="black" points="259.49,-279.26 249.8,-274.96 254.69,-284.36 259.49,-279.26"/>
</g>
<!-- 8&#45;&gt;9 -->
<g id="edge13" class="edge">
<title>8&#45;&gt;9</title>
<path fill="none" stroke="black" d="M203.99,-230.1C194.48,-221.27 183.26,-210.85 173.02,-201.34"/>
<polygon fill="black" stroke="black" points="175.78,-199.2 166.07,-194.96 171.02,-204.33 175.78,-199.2"/>
</g>
<!-- 10 -->
<g id="node11" class="node">
<title>10</title>
<polygon fill="#c1ffc1" stroke="none" points="228,-114 57,-114 57,-70 228,-70 228,-114"/>
<polygon fill="none" stroke="black" points="57,-70 57,-114 100,-114 100,-70 57,-70"/>
<text text-anchor="start" x="62.75" y="-94.5" font-family="Linux libertine" font-size="10.00">Conv2d</text>
<text text-anchor="start" x="62" y="-82.5" font-family="Linux libertine" font-size="10.00">depth:1</text>
<polygon fill="none" stroke="black" points="100,-92 100,-114 143,-114 143,-92 100,-92"/>
<text text-anchor="start" x="109.12" y="-99.5" font-family="Linux libertine" font-size="10.00">input:</text>
<polygon fill="none" stroke="black" points="143,-92 143,-114 228,-114 228,-92 143,-92"/>
<text text-anchor="start" x="147.62" y="-99.5" font-family="Linux libertine" font-size="10.00">(1, 64, 256, 256) </text>
<polygon fill="none" stroke="black" points="100,-70 100,-92 143,-92 143,-70 100,-70"/>
<text text-anchor="start" x="104.62" y="-77.5" font-family="Linux libertine" font-size="10.00">output: </text>
<polygon fill="none" stroke="black" points="143,-70 143,-92 228,-92 228,-70 143,-70"/>
<text text-anchor="start" x="150.25" y="-77.5" font-family="Linux libertine" font-size="10.00">(1, 1, 256, 256) </text>
</g>
<!-- 9&#45;&gt;10 -->
<g id="edge14" class="edge">
<title>9&#45;&gt;10</title>
<path fill="none" stroke="black" d="M142.5,-150.1C142.5,-142.32 142.5,-133.3 142.5,-124.76"/>
<polygon fill="black" stroke="black" points="146,-124.96 142.5,-114.96 139,-124.96 146,-124.96"/>
</g>
<!-- 11 -->
<g id="node12" class="node">
<title>11</title>
<polygon fill="lightyellow" stroke="none" points="215.12,-34 69.88,-34 69.88,0 215.12,0 215.12,-34"/>
<polygon fill="none" stroke="black" points="69.88,0 69.88,-34 137.62,-34 137.62,0 69.88,0"/>
<text text-anchor="start" x="74.88" y="-19.5" font-family="Linux libertine" font-size="10.00">output&#45;tensor</text>
<text text-anchor="start" x="87.25" y="-7.5" font-family="Linux libertine" font-size="10.00">depth:0</text>
<polygon fill="none" stroke="black" points="137.62,0 137.62,-34 215.12,-34 215.12,0 137.62,0"/>
<text text-anchor="start" x="142.62" y="-13.5" font-family="Linux libertine" font-size="10.00">(1, 1, 256, 256)</text>
</g>
<!-- 10&#45;&gt;11 -->
<g id="edge15" class="edge">
<title>10&#45;&gt;11</title>
<path fill="none" stroke="black" d="M142.5,-70.28C142.5,-62.28 142.5,-53.03 142.5,-44.55"/>
<polygon fill="black" stroke="black" points="146,-44.67 142.5,-34.67 139,-44.67 146,-44.67"/>
</g>
</g>
</svg>
